<svg width="688" height="688" viewBox="0 0 688 688" fill="none" xmlns="http://www.w3.org/2000/svg">
<path d="M594.693 297.918C591.192 277.636 584.509 258.034 574.893 239.837C558.078 208.189 527.613 160.139 490.021 141.439C431.954 112.543 377.024 111.167 323.608 156.575C270.191 201.983 228.884 331.327 209.111 353.343C189.338 375.359 135.33 379.487 111.745 413.887C88.1602 448.287 87.6924 529.471 87.6924 529.471H602.688C602.688 529.471 618.278 432.064 594.693 297.918Z" fill="#BDD3E1"/>
<path opacity="0.8" d="M594.693 297.918C591.192 277.636 584.509 258.034 574.893 239.837C558.078 208.189 527.613 160.139 490.021 141.439C431.954 112.543 377.024 111.167 323.608 156.575C270.191 201.983 228.884 331.327 209.111 353.343C189.338 375.359 135.33 379.487 111.745 413.887C88.1602 448.287 87.6924 529.471 87.6924 529.471H602.688C602.688 529.471 618.278 432.064 594.693 297.918Z" fill="white"/>
<path d="M532.814 248.506C526.678 245.148 523.898 247.941 521.669 245.148C519.44 242.355 527.792 235.117 511.06 227.866C511.06 227.866 509.945 212.248 487.076 211.684C464.207 211.12 470.344 227.301 464.207 231.168C458.07 235.035 456.391 228.939 450.254 232.847C444.118 236.755 446.911 244.556 441.888 245.671C436.866 246.786 430.179 240.649 424 244.556C417.822 248.464 417.863 251.808 415.07 251.808C412.277 251.808 406.704 249.579 403.36 251.808C400.017 254.037 396.109 256.83 396.109 256.83H537.286C537.286 256.83 538.951 251.808 532.814 248.506Z" fill="white"/>
<path opacity="0.5" d="M532.814 248.506C526.678 245.148 523.898 247.941 521.669 245.148C519.44 242.355 527.792 235.117 511.06 227.866C511.06 227.866 509.945 212.248 487.076 211.684C464.207 211.12 470.344 227.301 464.207 231.168C458.07 235.035 456.391 228.939 450.254 232.847C444.118 236.755 446.911 244.556 441.888 245.671C436.866 246.786 430.179 240.649 424 244.556C417.822 248.464 417.863 251.808 415.07 251.808C412.277 251.808 406.704 249.579 403.36 251.808C400.017 254.037 396.109 256.83 396.109 256.83H537.286C537.286 256.83 538.951 251.808 532.814 248.506Z" fill="white"/>
<path d="M411.149 172.949C407.516 170.968 405.865 172.619 404.544 170.968C403.223 169.317 408.176 165.01 398.255 160.717C398.255 160.717 397.595 151.456 384.041 151.085C370.488 150.713 374.12 160.345 370.488 162.657C366.855 164.969 365.864 161.281 362.232 163.648C358.599 166.014 360.25 170.596 357.278 171.257C354.306 171.917 350.398 168.271 346.697 170.596C342.995 172.922 343.064 174.89 341.399 174.89C339.734 174.89 336.446 173.514 334.519 174.89C332.593 176.266 330.226 177.862 330.226 177.862H413.873C413.873 177.862 414.795 174.931 411.149 172.949Z" fill="white"/>
<path opacity="0.5" d="M411.149 172.949C407.516 170.968 405.865 172.619 404.544 170.968C403.223 169.317 408.176 165.01 398.255 160.717C398.255 160.717 397.595 151.456 384.041 151.085C370.488 150.713 374.12 160.345 370.488 162.657C366.855 164.969 365.864 161.281 362.232 163.648C358.599 166.014 360.25 170.596 357.278 171.257C354.306 171.917 350.398 168.271 346.697 170.596C342.995 172.922 343.064 174.89 341.399 174.89C339.734 174.89 336.446 173.514 334.519 174.89C332.593 176.266 330.226 177.862 330.226 177.862H413.873C413.873 177.862 414.795 174.931 411.149 172.949Z" fill="white"/>
<path d="M369.855 305.733C366.222 303.752 364.571 305.403 363.25 303.752C361.929 302.101 366.883 297.794 356.962 293.501C356.962 293.501 356.301 284.24 342.748 283.869C329.194 283.497 332.827 293.129 329.194 295.441C325.562 297.753 324.557 294.065 320.938 296.432C317.319 298.798 318.957 303.312 315.985 304.041C313.012 304.77 309.105 301.069 305.403 303.38C301.702 305.692 301.757 307.674 300.106 307.674C298.454 307.674 295.152 306.298 293.226 307.674C291.299 309.05 288.919 310.66 288.919 310.66H372.566C372.566 310.66 373.488 307.715 369.855 305.733Z" fill="white"/>
<path opacity="0.5" d="M369.855 305.733C366.222 303.752 364.571 305.403 363.25 303.752C361.929 302.101 366.883 297.794 356.962 293.501C356.962 293.501 356.301 284.24 342.748 283.869C329.194 283.497 332.827 293.129 329.194 295.441C325.562 297.753 324.557 294.065 320.938 296.432C317.319 298.798 318.957 303.312 315.985 304.041C313.012 304.77 309.105 301.069 305.403 303.38C301.702 305.692 301.757 307.674 300.106 307.674C298.454 307.674 295.152 306.298 293.226 307.674C291.299 309.05 288.919 310.66 288.919 310.66H372.566C372.566 310.66 373.488 307.715 369.855 305.733Z" fill="white"/>
<path d="M491.507 528.453H562.413C561.037 519.784 555.532 521.311 554.748 507.813C554.377 501.043 560.637 492.677 560.087 483.774C559.647 476.454 552.423 468.941 551.831 460.561C551.336 453.007 557.486 444.613 556.895 436.467C556.331 428.762 549.01 421.331 548.364 413.364C547.717 405.397 553.771 397.072 553.056 389.174C552.34 381.276 544.896 374.038 544.098 366.236C543.286 358.228 549.134 349.614 548.226 341.964C547.277 333.831 539.598 326.827 538.594 319.315C537.424 310.976 542.86 302.059 541.594 294.863C540.039 286.043 531.824 279.658 530.09 273.15C526.87 261.027 527.338 249.331 523.472 248.574C519.412 247.763 518.491 259.211 515.422 271.966C513.867 278.406 505.79 284.928 504.524 293.748C503.451 300.904 509.134 309.586 508.198 317.897C507.372 325.341 499.942 332.483 499.158 340.574C498.484 348.183 504.552 356.563 503.946 364.516C503.368 372.249 496.117 379.652 495.608 387.468C495.099 395.283 501.373 403.54 500.947 411.3C500.52 419.061 493.379 426.739 493.021 434.389C492.636 442.467 499.006 450.626 498.704 458.125C498.36 466.381 491.328 474.059 491.067 481.325C490.75 490.145 497.231 498.277 497.039 504.992C496.598 519.564 489.925 516.55 489.691 528.274L491.507 528.453Z" fill="#BDD3E1"/>
<path d="M521.944 271.939V525.178" stroke="#263238" stroke-miterlimit="10"/>
<path d="M533.021 298.482L521.477 308.458L512.023 295.854" stroke="#263238" stroke-miterlimit="10"/>
<path d="M533.021 342.569L521.477 352.531L512.023 339.941" stroke="#263238" stroke-miterlimit="10"/>
<path d="M533.021 384.014L521.477 393.99L512.023 381.4" stroke="#263238" stroke-miterlimit="10"/>
<path d="M533.021 433.344L521.477 443.32L512.023 430.729" stroke="#263238" stroke-miterlimit="10"/>
<path d="M533.021 483.196L521.477 493.172L512.023 480.582" stroke="#263238" stroke-miterlimit="10"/>
<path d="M416.928 528.453H478.421C477.238 520.94 472.408 522.261 471.762 510.565C471.445 504.689 476.88 497.424 476.412 489.718C476.013 483.375 469.753 476.853 469.271 469.587C468.831 463.038 474.183 455.759 473.66 448.686C473.165 442.012 466.78 435.6 466.258 428.665C465.735 421.73 470.95 414.534 470.386 407.681C469.821 400.829 463.299 394.54 462.625 387.798C461.909 380.849 466.973 373.378 466.202 366.745C465.377 359.686 458.731 353.604 457.823 347.11C456.818 339.872 461.538 332.139 460.437 325.906C459.061 318.255 451.961 312.71 450.461 307.068C447.709 296.556 448.026 286.428 444.723 285.768C441.201 285.052 440.402 294.987 437.733 306.105C436.357 311.609 429.477 317.333 428.294 324.984C427.358 331.189 432.284 338.744 431.472 345.926C430.757 352.38 424.276 358.572 423.643 365.589C423.051 372.18 428.307 379.46 427.771 386.353C427.234 393.247 420.987 399.453 420.547 406.25C420.106 413.048 425.542 420.189 425.17 426.89C424.799 433.591 418.607 440.279 418.29 446.911C417.96 453.929 423.491 461.001 423.216 467.551C422.927 474.761 416.832 481.311 416.611 487.668C416.336 495.319 421.95 502.378 421.785 508.198C421.4 520.83 415.621 518.215 415.414 528.384L416.928 528.453Z" fill="#BDD3E1"/>
<path d="M443.292 306.009V525.618" stroke="#263238" stroke-miterlimit="10"/>
<path d="M452.897 329.029L442.893 337.684L434.692 326.759" stroke="#263238" stroke-miterlimit="10"/>
<path d="M452.897 367.254L442.893 375.909L434.692 364.984" stroke="#263238" stroke-miterlimit="10"/>
<path d="M452.897 403.209L442.893 411.851L434.692 400.939" stroke="#263238" stroke-miterlimit="10"/>
<path d="M452.897 445.989L442.893 454.63L434.692 443.705" stroke="#263238" stroke-miterlimit="10"/>
<path d="M452.897 489.209L442.893 497.864L434.692 486.939" stroke="#263238" stroke-miterlimit="10"/>
<path d="M200.456 528.453H285.988C284.35 517.995 277.622 519.839 276.727 503.685C276.287 495.511 283.841 485.412 283.181 474.693C282.644 465.859 273.934 456.804 273.26 446.691C272.654 437.568 280.14 427.427 279.369 417.616C278.681 408.328 269.847 399.412 269.077 389.752C268.306 380.34 275.585 370.116 274.732 360.581C273.879 351.045 264.88 342.308 263.931 332.923C262.954 323.291 269.999 312.875 268.925 303.628C267.77 293.831 258.523 285.355 257.271 276.315C255.895 266.256 262.431 255.509 260.89 246.827C259.018 236.19 249.111 228.485 247.019 220.683C243.139 206.056 243.621 191.952 239.039 191.03C234.14 190.053 233.026 203.882 229.324 219.321C227.453 227.081 217.766 234.952 216.183 245.588C214.89 254.216 221.687 264.701 220.614 274.718C219.61 283.69 210.597 292.317 209.716 302.073C208.891 311.237 216.211 321.337 215.495 330.969C214.794 340.285 206.042 349.174 205.437 358.641C204.831 368.108 212.317 378.042 211.863 387.385C211.326 397.017 202.74 406.016 202.299 415.236C201.832 424.991 209.523 434.83 209.179 443.87C208.767 453.901 200.291 463.134 199.974 471.844C199.603 482.481 207.418 492.305 207.171 500.396C206.648 517.981 198.598 514.335 198.309 528.48L200.456 528.453Z" fill="#BDD3E1"/>
<path d="M237.167 219.045V524.504" stroke="#263238" stroke-miterlimit="10"/>
<path d="M250.528 251.079L236.603 263.105L225.21 247.914" stroke="#263238" stroke-miterlimit="10"/>
<path d="M250.528 304.234L236.603 316.26L225.21 301.083" stroke="#263238" stroke-miterlimit="10"/>
<path d="M250.528 354.237L236.603 366.264L225.21 351.073" stroke="#263238" stroke-miterlimit="10"/>
<path d="M250.528 413.736L236.603 425.762L225.21 410.571" stroke="#263238" stroke-miterlimit="10"/>
<path d="M250.528 473.867L236.603 485.893L225.21 470.702" stroke="#263238" stroke-miterlimit="10"/>
<path d="M181.632 433.935V508.473C181.632 512.061 183.057 515.501 185.594 518.038C188.13 520.574 191.571 521.999 195.158 521.999H349.752C353.339 521.999 356.78 520.574 359.316 518.038C361.853 515.501 363.278 512.061 363.278 508.473V499.983" stroke="#263238" stroke-width="2" stroke-linecap="round" stroke-linejoin="round"/>
<path d="M186.517 419.377H175V427.867H186.517V419.377Z" fill="#263238" stroke="#263238" stroke-linecap="round" stroke-linejoin="round"/>
<path d="M176.445 378.675H119.781V532.567H176.445V378.675Z" fill="white"/>
<path d="M119.781 532.567H145.058V399.04L144.907 378.675H119.781V532.567Z" fill="#545372"/>
<path opacity="0.5" d="M119.781 532.567H145.058V399.04L144.907 378.675H119.781V532.567Z" fill="white"/>
<path d="M156.094 451.672H152.117L155.048 443.705H145.485L141.384 454.864H144.26L139.265 468.404L156.094 451.672Z" fill="#263238"/>
<path d="M176.445 378.675H119.781V532.567H176.445V378.675Z" stroke="#263238" stroke-miterlimit="10"/>
<path d="M148.113 424.166C163.76 424.166 176.445 404.779 176.445 380.863C176.445 356.948 163.76 337.56 148.113 337.56C132.466 337.56 119.781 356.948 119.781 380.863C119.781 404.779 132.466 424.166 148.113 424.166Z" fill="white" stroke="#263238" stroke-linecap="round" stroke-linejoin="round"/>
<path d="M154.731 367.268H141.48C140.287 367.268 139.32 368.235 139.32 369.429V379.047C139.32 380.24 140.287 381.207 141.48 381.207H154.731C155.924 381.207 156.892 380.24 156.892 379.047V369.429C156.892 368.235 155.924 367.268 154.731 367.268Z" fill="#545372" stroke="#263238" stroke-linecap="round" stroke-linejoin="round"/>
<path d="M157.8 406.663C157.8 404.758 157.235 402.896 156.176 401.312C155.118 399.728 153.614 398.493 151.854 397.764C150.094 397.035 148.157 396.844 146.289 397.216C144.42 397.588 142.704 398.505 141.357 399.852C140.01 401.199 139.092 402.916 138.721 404.784C138.349 406.652 138.54 408.589 139.269 410.349C139.998 412.109 141.232 413.613 142.816 414.672C144.4 415.73 146.263 416.295 148.168 416.295C149.433 416.295 150.685 416.046 151.854 415.562C153.022 415.078 154.084 414.368 154.979 413.474C155.873 412.579 156.582 411.518 157.066 410.349C157.551 409.18 157.8 407.928 157.8 406.663Z" fill="#263238" stroke="#263238" stroke-linecap="round" stroke-linejoin="round"/>
<path opacity="0.2" d="M152.956 406.663C152.956 405.705 152.672 404.769 152.14 403.972C151.608 403.176 150.851 402.555 149.966 402.188C149.081 401.822 148.107 401.726 147.168 401.913C146.228 402.099 145.365 402.561 144.688 403.238C144.01 403.916 143.549 404.779 143.362 405.718C143.175 406.658 143.271 407.632 143.638 408.517C144.004 409.402 144.625 410.158 145.422 410.69C146.218 411.222 147.155 411.507 148.113 411.507C149.396 411.503 150.626 410.991 151.533 410.084C152.441 409.176 152.952 407.946 152.956 406.663Z" fill="white"/>
<path d="M151.14 351.513C151.14 350.914 150.962 350.329 150.63 349.831C150.297 349.333 149.824 348.945 149.271 348.716C148.718 348.487 148.109 348.427 147.522 348.544C146.935 348.661 146.395 348.949 145.972 349.372C145.549 349.796 145.26 350.335 145.144 350.922C145.027 351.51 145.087 352.118 145.316 352.671C145.545 353.225 145.933 353.697 146.431 354.03C146.929 354.363 147.514 354.54 148.113 354.54C148.914 354.537 149.682 354.216 150.249 353.65C150.816 353.083 151.136 352.315 151.14 351.513Z" fill="#263238" stroke="#263238" stroke-linecap="round" stroke-linejoin="round"/>
<path d="M184.233 427.083H179.21V435.573H184.233V427.083Z" fill="#263238" stroke="#263238" stroke-linecap="round" stroke-linejoin="round"/>
<path d="M176.445 504.221H119.781V532.567H176.445V504.221Z" fill="#545372" stroke="#263238" stroke-linecap="round" stroke-linejoin="round"/>
<path d="M614.315 523.004H83.5508V533.31H614.315V523.004Z" fill="white" stroke="#263238" stroke-linecap="round" stroke-linejoin="round"/>
<path d="M614.315 530.875H83.5508V535.718H614.315V530.875Z" fill="#263238" stroke="#263238" stroke-linecap="round" stroke-linejoin="round"/>
<path d="M279.865 415.456H279.122C278.382 415.456 277.654 415.28 276.995 414.944C276.337 414.608 275.767 414.12 275.333 413.521C274.9 412.923 274.614 412.229 274.5 411.499C274.386 410.768 274.447 410.021 274.677 409.319C275.613 406.429 277.195 403.512 279.865 403.072C285.369 402.15 300.505 406.746 300.505 409.952C300.505 413.158 300.505 414.534 298.661 414.534H287.199L278.021 424.634L277.828 424.468C277.354 424.072 276.973 423.576 276.711 423.016C276.45 422.457 276.314 421.846 276.314 421.228C276.314 420.61 276.45 420 276.711 419.44C276.973 418.88 277.354 418.384 277.828 417.988C278.647 417.266 279.336 416.41 279.865 415.456Z" fill="#263238" stroke="#263238" stroke-linecap="round" stroke-linejoin="round"/>
<path d="M383.519 500.768H535.801C535.801 500.768 557.817 486.086 553.221 447.558C548.625 409.03 523.871 434.72 514.693 460.41H446.815C446.815 460.41 432.133 431.046 408.287 434.72C384.441 438.394 383.519 500.768 383.519 500.768Z" fill="#263238" stroke="#263238" stroke-linecap="round" stroke-linejoin="round"/>
<path d="M420.932 493.145C420.932 481.82 417.699 471.638 412.511 464.441V453.708H394.155C379.349 453.708 367.365 471.363 367.365 493.145C367.365 514.927 379.349 532.512 394.155 532.512H412.511V521.779C417.699 514.624 420.932 504.455 420.932 493.145Z" fill="#263238" stroke="#263238" stroke-linecap="round" stroke-linejoin="round"/>
<path d="M412.511 532.567C427.307 532.567 439.302 514.917 439.302 493.145C439.302 471.372 427.307 453.722 412.511 453.722C397.715 453.722 385.72 471.372 385.72 493.145C385.72 514.917 397.715 532.567 412.511 532.567Z" fill="#263238"/>
<path opacity="0.2" d="M412.511 532.567C427.307 532.567 439.302 514.917 439.302 493.145C439.302 471.372 427.307 453.722 412.511 453.722C397.715 453.722 385.72 471.372 385.72 493.145C385.72 514.917 397.715 532.567 412.511 532.567Z" fill="white"/>
<path d="M412.511 532.567C427.307 532.567 439.302 514.917 439.302 493.145C439.302 471.372 427.307 453.722 412.511 453.722C397.715 453.722 385.72 471.372 385.72 493.145C385.72 514.917 397.715 532.567 412.511 532.567Z" stroke="#263238" stroke-linecap="round" stroke-linejoin="round"/>
<path d="M255.455 453.708H238.048C224.068 453.708 212.73 471.363 212.73 493.145C212.73 514.927 224.123 532.512 238.048 532.512H255.399C269.38 532.512 280.718 514.858 280.718 493.09C280.718 471.321 269.435 453.708 255.455 453.708Z" fill="#263238" stroke="#263238" stroke-linecap="round" stroke-linejoin="round"/>
<path d="M412.511 524.6C424.313 524.6 433.88 510.517 433.88 493.145C433.88 475.772 424.313 461.689 412.511 461.689C400.709 461.689 391.142 475.772 391.142 493.145C391.142 510.517 400.709 524.6 412.511 524.6Z" fill="white" stroke="#263238" stroke-linecap="round" stroke-linejoin="round"/>
<path d="M546.382 493.145C546.382 481.82 544.318 471.638 541.016 464.441V453.708H524.806C515.395 453.708 507.758 471.363 507.758 493.145C507.758 514.927 515.395 532.512 524.806 532.512H541.016V521.779C544.318 514.624 546.382 504.455 546.382 493.145Z" fill="#263238" stroke="#263238" stroke-linecap="round" stroke-linejoin="round"/>
<path d="M541.016 532.567C550.431 532.567 558.064 514.917 558.064 493.145C558.064 471.372 550.431 453.722 541.016 453.722C531.6 453.722 523.967 471.372 523.967 493.145C523.967 514.917 531.6 532.567 541.016 532.567Z" fill="#263238"/>
<path opacity="0.2" d="M541.016 532.567C550.431 532.567 558.064 514.917 558.064 493.145C558.064 471.372 550.431 453.722 541.016 453.722C531.6 453.722 523.967 471.372 523.967 493.145C523.967 514.917 531.6 532.567 541.016 532.567Z" fill="white"/>
<path d="M541.016 532.567C550.431 532.567 558.064 514.917 558.064 493.145C558.064 471.372 550.431 453.722 541.016 453.722C531.6 453.722 523.967 471.372 523.967 493.145C523.967 514.917 531.6 532.567 541.016 532.567Z" stroke="#263238" stroke-linecap="round" stroke-linejoin="round"/>
<path d="M541.016 524.6C548.524 524.6 554.611 510.517 554.611 493.145C554.611 475.772 548.524 461.689 541.016 461.689C533.508 461.689 527.421 475.772 527.421 493.145C527.421 510.517 533.508 524.6 541.016 524.6Z" fill="white" stroke="#263238" stroke-linecap="round" stroke-linejoin="round"/>
<path d="M389.93 502.763C389.93 471.349 400.856 445.879 414.313 445.879C427.77 445.879 438.696 471.349 438.696 502.763C438.696 504.497 438.696 506.203 438.586 507.882H525.452C525.397 506.203 525.37 504.497 525.37 502.763C525.37 471.349 533.323 445.879 543.134 445.879C549.684 445.879 555.408 457.259 558.477 474.183V427.785C558.477 425.67 557.736 423.621 556.384 421.995C555.032 420.369 553.153 419.268 551.074 418.882L550.661 418.799C544.634 417.588 533.805 406.154 516.949 391.706C500.093 377.258 485.039 376.061 485.039 376.061H332.991C330.113 376.072 327.32 377.04 325.052 378.813L273.19 418.841C273.19 418.841 226.833 427.867 216.596 438.105C206.358 448.342 207.569 507.923 207.569 507.923H390.04C389.972 506.203 389.93 504.497 389.93 502.763Z" fill="#8494AE"/>
<path opacity="0.3" d="M420.037 418.799L428.087 376.061H332.991C330.113 376.072 327.32 377.04 325.052 378.813L273.19 418.841C273.19 418.841 226.833 427.867 216.596 438.105C206.358 448.342 207.569 507.923 207.569 507.923H370.377C371.561 475.752 378.936 460.451 378.936 460.451H333.982C368.836 422.79 420.037 418.799 420.037 418.799Z" fill="black"/>
<path d="M389.93 502.763C389.93 471.349 400.856 445.879 414.313 445.879C427.77 445.879 438.696 471.349 438.696 502.763C438.696 504.497 438.696 506.203 438.586 507.882H525.452C525.397 506.203 525.37 504.497 525.37 502.763C525.37 471.349 533.323 445.879 543.134 445.879C549.684 445.879 555.408 457.259 558.476 474.183V427.785C558.477 425.67 557.736 423.621 556.384 421.995C555.032 420.369 553.153 419.268 551.074 418.882L550.661 418.799C544.634 417.588 533.805 406.154 516.949 391.706C500.093 377.258 485.039 376.061 485.039 376.061H332.991C330.113 376.072 327.32 377.04 325.052 378.813L273.19 418.841C273.19 418.841 226.833 427.867 216.596 438.105C206.358 448.342 207.569 507.923 207.569 507.923H390.04C389.972 506.203 389.93 504.497 389.93 502.763Z" stroke="#263238" stroke-linecap="round" stroke-linejoin="round"/>
<path d="M447.723 376.061H332.992C330.114 376.072 327.321 377.04 325.053 378.813L273.191 418.841H420.038L447.723 376.061Z" fill="#8494AE" stroke="#263238" stroke-linecap="round" stroke-linejoin="round"/>
<path d="M387.619 434.899C379.363 435.009 364.901 435.559 358.641 438.063C353.453 440.1 348.422 442.515 343.587 445.287H373.075L387.619 434.899Z" fill="#263238" stroke="#263238" stroke-linecap="round" stroke-linejoin="round"/>
<path d="M374.891 454.314V448.893H343.587L349.256 454.121C349.166 454.175 349.083 454.24 349.009 454.314H374.891Z" fill="#263238" stroke="#263238" stroke-linecap="round" stroke-linejoin="round"/>
<path d="M377.891 446.485V454.355C379.109 454.25 380.287 453.864 381.332 453.23C382.378 452.595 383.262 451.727 383.918 450.695C386.931 445.879 393.701 434.899 393.701 434.899L377.891 446.485Z" fill="#263238" stroke="#263238" stroke-linecap="round" stroke-linejoin="round"/>
<path d="M219.486 454.08L225.155 448.851H211.794C211.381 450.544 210.996 452.36 210.666 454.273H219.734C219.656 454.202 219.574 454.137 219.486 454.08Z" fill="#263238" stroke="#263238" stroke-linecap="round" stroke-linejoin="round"/>
<path d="M215.014 440.141C214.091 441.77 213.353 443.496 212.812 445.287H225.196C221.899 443.387 218.499 441.67 215.014 440.141Z" fill="#263238" stroke="#263238" stroke-linecap="round" stroke-linejoin="round"/>
<path d="M420.038 418.799H509.12C509.12 418.799 521.765 414.589 518.147 398.93C516.922 393.619 491.659 381.482 488.054 381.482H444.71L420.038 418.799Z" fill="#263238"/>
<path opacity="0.2" d="M420.038 418.799H509.12C509.12 418.799 521.765 414.589 518.147 398.93C516.922 393.619 491.659 381.482 488.054 381.482H444.71L420.038 418.799Z" fill="white" stroke="#263238" stroke-linecap="round" stroke-linejoin="round"/>
<path d="M420.038 418.799H509.12C509.12 418.799 521.765 414.589 518.147 398.93C516.922 393.619 491.659 381.482 488.054 381.482H444.71L420.038 418.799Z" stroke="#263238" stroke-linecap="round" stroke-linejoin="round"/>
<path d="M321.516 381.482L273.15 418.799H420.038L444.214 381.482H321.516Z" fill="#263238" stroke="#263238" stroke-linecap="round" stroke-linejoin="round"/>
<path d="M227.412 446.484V459.13L236.438 465.749H309.27L326.126 458.524V446.484H227.412Z" fill="#263238" stroke="#263238" stroke-linecap="round" stroke-linejoin="round"/>
<path opacity="0.3" d="M230.783 446.484H227.412V449.856H230.783V446.484Z" fill="white"/>
<path opacity="0.3" d="M234.498 450.213H231.127V453.585H234.498V450.213Z" fill="white"/>
<path opacity="0.3" d="M238.227 453.929H234.856V457.3H238.227V453.929Z" fill="white"/>
<path opacity="0.3" d="M241.942 457.658H238.571V461.029H241.942V457.658Z" fill="white"/>
<path opacity="0.3" d="M325.465 446.484H322.094V449.856H325.465V446.484Z" fill="white"/>
<path opacity="0.3" d="M321.736 450.213H318.365V453.585H321.736V450.213Z" fill="white"/>
<path opacity="0.3" d="M318.021 453.929H314.65V457.3H318.021V453.929Z" fill="white"/>
<path opacity="0.3" d="M314.306 457.658H310.935V461.029H314.306V457.658Z" fill="white"/>
<path opacity="0.3" d="M247.116 457.658H243.745V461.029H247.116V457.658Z" fill="white"/>
<path opacity="0.3" d="M252.276 457.658H248.905V461.029H252.276V457.658Z" fill="white"/>
<path opacity="0.3" d="M257.45 457.658H254.079V461.029H257.45V457.658Z" fill="white"/>
<path opacity="0.3" d="M262.623 457.658H259.252V461.029H262.623V457.658Z" fill="white"/>
<path opacity="0.3" d="M267.784 457.658H264.412V461.029H267.784V457.658Z" fill="white"/>
<path opacity="0.3" d="M272.957 457.658H269.586V461.029H272.957V457.658Z" fill="white"/>
<path opacity="0.3" d="M278.117 457.658H274.746V461.029H278.117V457.658Z" fill="white"/>
<path opacity="0.3" d="M283.291 457.658H279.92V461.029H283.291V457.658Z" fill="white"/>
<path opacity="0.3" d="M288.465 457.658H285.094V461.029H288.465V457.658Z" fill="white"/>
<path opacity="0.3" d="M293.625 457.658H290.253V461.029H293.625V457.658Z" fill="white"/>
<path opacity="0.3" d="M298.798 457.658H295.427V461.029H298.798V457.658Z" fill="white"/>
<path opacity="0.3" d="M303.958 457.658H300.587V461.029H303.958V457.658Z" fill="white"/>
<path opacity="0.3" d="M309.132 457.658H305.761V461.029H309.132V457.658Z" fill="white"/>
<path d="M361.035 481.394H211.161L209.152 465.336C208.23 474.17 207.776 483.568 207.625 491.301L208.148 493.434L211.161 487.421H224.013L216.032 493.984H335.207L330.956 487.365H361.09L369.525 492.181H375.538V461.538L361.035 481.394Z" fill="#263238" stroke="#263238" stroke-linecap="round" stroke-linejoin="round"/>
<path d="M451.397 415.456H450.654C449.916 415.453 449.188 415.276 448.532 414.939C447.875 414.602 447.307 414.114 446.875 413.516C446.443 412.917 446.159 412.225 446.045 411.496C445.932 410.766 445.993 410.02 446.223 409.319C447.145 406.429 448.741 403.512 451.397 403.072C456.901 402.15 472.037 406.746 472.037 409.952C472.037 413.158 472.037 414.534 470.207 414.534H458.745L449.567 424.634L449.374 424.468C448.9 424.072 448.519 423.576 448.257 423.016C447.995 422.457 447.86 421.846 447.86 421.228C447.86 420.61 447.995 420 448.257 419.44C448.519 418.88 448.9 418.384 449.374 417.988C450.188 417.266 450.873 416.409 451.397 415.456Z" fill="#8494AE"/>
<path d="M478.752 418.799H483.788C483.251 411.41 481.146 395.146 472.876 381.482H467.84C470.743 387.771 477.623 403.994 478.752 418.799Z" fill="#263238" stroke="#263238" stroke-linecap="round" stroke-linejoin="round"/>
<path d="M370.213 391.61L372.057 396.646C369.791 398.805 368.47 401.773 368.383 404.902V418.799H357.086L366.553 391.61H370.213ZM317.471 398.49C309.724 403.209 298.028 413.626 292.345 418.799H330.061L349.573 388.858L336.735 389.766C329.96 391.819 323.483 394.752 317.471 398.49ZM395.449 394.816L390.853 393.894H384.441L382.597 395.738C382.597 395.738 387.193 396.192 387.647 398.944C387.959 401.684 388.111 404.441 388.101 407.2H391.321C391.321 407.2 391.321 402.15 393.605 399.866C394.902 398.555 396.28 397.328 397.733 396.192L395.449 394.816Z" fill="white" stroke="#263238" stroke-linecap="round" stroke-linejoin="round"/>
<path d="M449.374 424.468L449.567 424.634L458.745 414.534H470.207C471.72 414.534 471.982 413.584 472.023 411.438H446.044C446.2 412.55 446.752 413.569 447.599 414.307C448.446 415.046 449.53 415.453 450.654 415.456H451.397C450.868 416.41 450.179 417.267 449.36 417.988C448.887 418.385 448.507 418.881 448.246 419.442C447.986 420.002 447.852 420.613 447.853 421.231C447.854 421.849 447.991 422.459 448.254 423.019C448.517 423.578 448.899 424.073 449.374 424.468Z" fill="#263238" stroke="#263238" stroke-linecap="round" stroke-linejoin="round"/>
<path d="M477.678 429.876H467.358V432.091H477.678V429.876Z" fill="#263238"/>
<path d="M524.146 429.876H513.826V432.091H524.146V429.876Z" fill="#263238"/>
<path d="M524.875 421.056C524.875 421.056 532.347 426.133 536.681 443.925C536.681 443.925 518.243 446.127 518.243 497.025" stroke="#263238" stroke-linecap="round" stroke-linejoin="round"/>
<path d="M516 499.199H438.641C438.641 500.382 438.641 501.566 438.641 502.763C438.641 504.497 438.641 506.203 438.531 507.882H525.398C525.343 506.203 525.316 504.497 525.316 502.763V502.419L516 499.199Z" fill="#263238" stroke="#263238" stroke-linecap="round" stroke-linejoin="round"/>
<path d="M389.931 502.763C389.931 501.566 389.931 500.382 389.931 499.199H207.515C207.515 504.497 207.515 507.882 207.515 507.882H390.041C389.972 506.203 389.931 504.497 389.931 502.763Z" fill="#263238" stroke="#263238" stroke-linecap="round" stroke-linejoin="round"/>
<path d="M555.244 425.459C554.327 425.459 553.426 425.698 552.629 426.152C551.833 426.605 551.168 427.258 550.7 428.047C550.232 428.835 549.978 429.732 549.961 430.649C549.945 431.565 550.167 432.47 550.607 433.275L558.477 447.723V427.785C558.467 426.999 558.356 426.217 558.147 425.459H555.244Z" fill="#263238" stroke="#263238" stroke-linecap="round" stroke-linejoin="round"/>
<path d="M484.421 426.464C484.421 426.464 500.933 450.31 484.421 490.682" stroke="#263238" stroke-linecap="round" stroke-linejoin="round"/>
</svg>
