<svg width="170" height="56" viewBox="0 0 170 56" fill="none" xmlns="http://www.w3.org/2000/svg">
<path d="M91.7123 21.7419H94.8617V40.1512H91.057C89.0476 35.6966 87.0269 31.2187 84.9949 26.7176L84.7835 26.745V27.8587C84.7835 31.5161 84.7835 35.1735 84.7835 38.8267C84.7835 39.2485 84.9505 39.74 84.477 40.1491C83.6886 40.3495 82.8283 40.1491 81.9913 40.2419C81.7503 39.3413 81.689 23.4567 81.9131 21.7503H85.8932L91.5517 34.4163L91.6996 34.4015L91.7123 21.7419Z" fill="#565572"/>
<path d="M52.7184 32.6424C52.0211 32.5479 51.315 32.5373 50.6152 32.6108V40.1534C49.3999 40.2968 48.3028 40.2209 47.1255 40.2103V21.8389C47.4024 21.6027 47.7469 21.7061 48.0619 21.7039C49.9642 21.7039 51.8518 21.685 53.7457 21.7039C54.8524 21.7066 55.9443 21.959 56.9395 22.4422C59.7677 23.8448 60.3595 28.0865 58.4022 30.4214C57.7728 31.2161 56.9508 31.8375 56.0137 32.2269C56.7493 33.5831 57.4553 34.874 58.1549 36.169C58.8545 37.4641 59.5478 38.7697 60.2855 40.1491C58.9898 40.3158 57.7765 40.1913 56.5421 40.2335L52.7184 32.6424ZM50.518 29.6557C51.3001 29.6557 51.9553 29.6557 52.6106 29.6557C53.0629 29.6557 53.5153 29.6557 53.9655 29.6262C54.5247 29.6049 55.0553 29.374 55.4514 28.9795C55.8475 28.585 56.08 28.056 56.1025 27.498C56.187 25.8697 55.4684 25.0682 54.3798 24.737C53.8133 24.5641 51.1606 24.6716 50.518 24.8615V29.6557Z" fill="#575673"/>
<path d="M152.746 21.7398H164.771C164.955 22.6615 164.873 23.5769 164.83 24.583H156.073V29.1812C156.976 29.4279 162.298 29.4279 163.247 29.1537C163.459 29.6114 163.334 30.1029 163.357 30.5733C163.38 31.0436 163.357 31.4633 163.357 32.0497H156.039V37.3228C157.037 37.3228 158.007 37.3439 158.978 37.3481C159.948 37.3523 160.88 37.3333 161.816 37.3481C162.753 37.3629 163.774 37.2532 164.788 37.4388V40.0542C163.913 40.2652 154.393 40.3369 152.672 40.1281C152.653 34.045 152.526 27.9536 152.746 21.7398Z" fill="#575773"/>
<path d="M76.9797 37.4177C77.1551 38.3605 77.0389 39.2106 77.0748 40.0395C76.1215 40.2778 66.6351 40.3284 65.0625 40.1133V21.763H77.0685V24.5599H68.4719C68.157 25.5976 68.1633 28.3185 68.51 29.3478C70.7696 29.3056 73.0799 29.487 75.5022 29.217C75.7368 30.0354 75.5297 30.9593 75.5931 31.9253C74.7835 32.21 73.9634 32.0286 73.1623 32.0624C72.3612 32.0961 71.5981 32.0624 70.8161 32.0624H68.3113V37.3355H71.1986C72.1879 37.3355 73.1771 37.3228 74.1579 37.3355C75.0963 37.3565 76.037 37.2595 76.9797 37.4177Z" fill="#575673"/>
<path d="M147.248 37.3544V40.1703H135.376C135.154 39.3392 135.094 23.404 135.314 21.8052C136.536 21.6533 146.145 21.6618 147.28 21.8242V24.5978H138.5V29.2191C139.753 29.4301 144.807 29.4027 145.762 29.1749V31.9379C145.008 32.2079 144.186 32.0265 143.385 32.0603C142.583 32.094 141.82 32.0603 141.038 32.0603H138.502V37.3544H147.248Z" fill="#575673"/>
<path d="M129.136 23.8069C128.725 24.5416 128.251 25.239 127.718 25.8908C127.206 25.8613 127.071 25.3951 126.769 25.1547C125.5 24.1507 124.118 23.6613 122.526 24.1296C120.709 24.6653 120.328 26.3169 121.681 27.6225C122.235 28.1127 122.855 28.5224 123.524 28.8395C124.754 29.4912 126.044 30.0312 127.2 30.8201C128.356 31.6089 129.256 32.5855 129.601 34.0746C130.068 36.1016 129.066 38.7929 126.978 39.9319C124.308 41.3894 119.199 41.0667 116.897 38.2045C116.925 37.7088 117.286 37.3397 117.498 36.9094C117.671 36.485 117.929 36.0998 118.254 35.7767C118.612 35.8105 118.789 36.1163 119.018 36.3167C120.145 37.2899 121.561 37.8691 123.048 37.9661C124.245 38.0695 125.739 37.5147 126.103 36.3821C126.477 35.2051 126.255 34.1927 125.283 33.4165C124.558 32.875 123.77 32.4225 122.936 32.0687C121.932 31.6005 120.909 31.1575 120.024 30.4784C118.662 29.4364 117.741 28.135 117.684 26.3485C117.627 24.562 118.426 23.2374 119.827 22.2819C122.575 20.4068 126.826 21.0164 129.037 23.5221C129.083 23.612 129.116 23.7078 129.136 23.8069Z" fill="#585773"/>
<path d="M107.485 24.621V40.1534H104.078V24.678H99.0661C98.8357 23.6592 98.9625 22.7396 98.9414 21.7588H112.638C112.799 22.6658 112.729 23.5833 112.687 24.6168L107.485 24.621Z" fill="#595975"/>
<path d="M36.8402 9.6645C36.65 10.7571 35.9186 11.1663 34.9062 11.3519L33.6506 10.7571C33.0588 10.0631 32.9214 9.32069 33.4244 8.53395C33.8239 7.90118 34.4242 7.55949 35.1767 7.66284C36.2759 7.80416 36.6986 8.59301 36.8402 9.6645Z" fill="#C0D5E0"/>
<path d="M7.73196 15.758C8.47599 16.047 9.15238 16.1398 9.47155 16.916C9.61821 17.2286 9.66779 17.5778 9.61392 17.9187C9.56006 18.2596 9.40521 18.5767 9.16929 18.8291C8.95773 19.1073 8.66589 19.3142 8.33299 19.4221C8.00009 19.5299 7.64209 19.5335 7.3071 19.4323C6.59689 19.2383 5.99025 18.5232 5.94163 17.863C5.9057 17.3864 6.14032 17.0046 6.42779 16.6544C6.55215 16.4932 6.69957 16.3511 6.86533 16.2326C7.13377 16.0554 7.42758 15.9204 7.73196 15.758Z" fill="#C0D5E0"/>
<path d="M13.145 10.5461L13.739 9.36496C14.5845 8.73219 15.43 8.67735 16.36 9.28903C16.9941 10.1095 17.0131 10.9764 16.4424 11.8306C15.821 12.4297 15.077 12.358 14.3393 12.3263C13.6143 11.9635 13.2951 11.3308 13.145 10.5461Z" fill="#C0D5E0"/>
<path d="M31.7712 50.0499C31.1244 49.4171 30.3339 48.8898 30.8222 47.7972C31.2449 46.8586 31.8177 46.5886 33.3586 46.6856L34.2844 47.6896C34.4493 48.0862 34.3098 48.4933 34.369 48.8603C34.0519 49.3163 33.6629 49.718 33.217 50.0499H31.7712Z" fill="#BFD5E0"/>
<path d="M5.86553 35.2916H7.2014C8.57109 36.42 8.6958 36.9073 7.97502 38.274C6.65817 38.9996 6.1699 38.9469 5.03483 37.9366C4.85517 37.5991 5.03483 37.1351 4.71777 36.8187C4.88687 36.1859 5.28425 35.7324 5.86553 35.2916Z" fill="#BFD5DF"/>
<path d="M26.6328 8.37994L25.6415 9.34175H24.1618C22.9528 8.30401 22.7499 7.7535 23.2424 6.88661C23.6651 6.1294 24.5592 5.73708 25.3202 5.96698C26.2735 6.25384 26.7047 7.00894 26.6328 8.37994Z" fill="#BFD5E0"/>
<path d="M13.699 43.1843C13.9103 43.3784 14.09 43.5408 14.2612 43.7138C14.3732 43.8298 14.4726 43.9605 14.574 44.0871V45.6669C13.3671 47.0421 12.5089 46.9936 11.1815 45.496C11.1223 44.4646 11.1223 44.4646 11.5282 43.6526C12.1221 43.0725 12.8662 43.1485 13.699 43.1843Z" fill="#BFD5E0"/>
<path d="M42.5723 44.4815C41.6719 45.0679 40.8433 45.0552 40.0485 44.5089C39.5412 43.9584 39.499 43.3236 39.5793 42.6106C39.8329 42.1888 40.2641 41.8661 40.6129 41.4927C41.6 41.3114 42.4159 41.4801 42.976 42.3364C43.0437 43.583 43.0437 43.583 42.5723 44.4815Z" fill="#BFD5DF"/>
<path d="M6.26531 28.2004L5.60794 28.8332H3.90005C2.98692 28.0211 2.76076 27.439 3.08838 26.6585C3.48365 25.7178 4.20654 25.3171 5.20211 25.4225C6.28645 25.9266 6.68594 26.7513 6.26531 28.2004Z" fill="#BFD5DF"/>
<path d="M44.7477 14.9903V16.279C44.5469 16.7009 44.1749 16.9645 43.8811 17.2345C42.5896 17.2936 42.5896 17.2936 41.7314 16.8316C41.2643 16.2938 41.2241 15.6589 41.3213 14.9586C41.8603 14.2183 42.5198 13.6636 43.583 13.845C44.029 14.1635 44.422 14.5499 44.7477 14.9903Z" fill="#BFD5DF"/>
<path d="M23.9655 48.2844V49.6428C23.7274 50.0027 23.4198 50.3118 23.0608 50.5519H21.4586C20.5941 50.0288 20.4017 49.2188 20.5603 48.2697C21.6108 46.7447 22.9023 46.789 23.9655 48.2844Z" fill="#BFD5E0"/>
<path d="M23.7944 12.8431C23.8658 12.5409 24.0013 12.2575 24.1916 12.012C24.3819 11.7664 24.6227 11.5643 24.8978 11.4194C25.4305 11.2548 25.8363 11.5438 26.2358 11.7885C26.5127 12.1871 26.7367 12.5731 26.6416 13.1067C26.454 13.4565 26.1823 13.7543 25.8511 13.9736C25.4918 14.1171 25.1219 14.0411 24.7625 14.0369C24.2003 13.8197 23.9804 13.3409 23.7944 12.8431Z" fill="#909BB0"/>
<path d="M12.1814 21.3728C12.0782 20.8861 12.0782 20.3831 12.1814 19.8964C13.4496 18.8987 14.1006 19.0527 14.8066 20.5291C14.7263 21.3496 14.2253 21.7947 13.4454 21.9592C12.9508 21.9465 12.583 21.7082 12.1814 21.3728Z" fill="#8E99AF"/>
<path d="M9.43799 27.692V26.7872L10.1693 26.0131C11.7187 25.8444 12.1203 26.224 12.0484 27.7406C11.8273 28.0939 11.5186 28.3845 11.1522 28.5842C10.4272 28.6855 9.90935 28.3354 9.43799 27.692Z" fill="#929CB2"/>
<path d="M12.2956 36.0361C11.8839 35.9413 11.5096 35.727 11.2197 35.4202C11.091 34.9591 11.0736 34.4741 11.169 34.005C12.3548 32.9292 13.1115 33.1064 13.809 34.6272C13.6801 35.435 13.2045 35.8906 12.2956 36.0361Z" fill="#8E99AF"/>
<path d="M37.2862 40.6533C36.9229 40.4431 36.6145 40.1504 36.3857 39.799V38.9385C36.5845 38.5796 36.8766 38.2808 37.2312 38.0737C37.5302 37.9683 37.8548 37.9595 38.1592 38.0484C38.4825 38.2313 38.7566 38.4897 38.9581 38.8014C39.104 40.1471 38.7214 40.5626 37.2862 40.6533Z" fill="#909BB0"/>
<path d="M15.853 39.9003C16.1444 39.5616 16.5384 39.3269 16.9754 39.2316C17.2685 39.2452 17.5541 39.3289 17.8079 39.4757C18.0618 39.6226 18.2765 39.8282 18.4339 40.0753C18.5713 40.3664 18.5079 40.6912 18.4867 41.0013C18.2162 41.518 17.7659 41.7733 17.1995 41.9336C16.9166 41.8912 16.6476 41.7835 16.4139 41.6191C16.1801 41.4547 15.9881 41.2381 15.853 40.9865V39.9003Z" fill="#8E99AF"/>
<path d="M23.9844 41.9736C24.3491 42.1532 24.6576 42.4289 24.8764 42.7709C24.9948 43.8593 24.8553 44.2326 24.2064 44.5153C23.3397 44.897 22.8346 44.3528 22.3442 43.8445C22.2617 42.4609 22.5577 42.1339 23.9844 41.9736Z" fill="#929CB2"/>
<path d="M32.27 13.3746C32.7292 13.2966 33.1978 13.2909 33.6588 13.3577C33.9335 13.5121 34.1602 13.7391 34.314 14.0137V15.0683C34.1722 15.3384 33.9596 15.5651 33.6989 15.7243C33.0416 15.815 32.3144 15.9605 31.8473 15.1421C31.5049 14.5537 31.545 14.3681 32.27 13.3746Z" fill="#909BB0"/>
<path d="M18.5017 16.7325C18.0514 16.5406 17.6224 16.3866 17.3476 15.8509C17.2398 15.5556 17.299 15.1548 17.3645 14.7224C17.5601 14.4629 17.828 14.2666 18.1348 14.1582C18.4416 14.0497 18.7736 14.034 19.0893 14.1129C19.4335 14.3141 19.7236 14.5957 19.9348 14.9334C20.1144 15.4839 19.8375 15.893 19.6198 16.2917C19.2563 16.5807 18.8335 16.5828 18.5017 16.7325Z" fill="#8E99AF"/>
<path d="M37.6094 19.5125V18.7025C37.8135 18.3443 38.1041 18.0427 38.4549 17.8251C38.7627 17.7407 39.0876 17.7407 39.3955 17.8251C39.7109 18.0211 39.9794 18.284 40.1818 18.595C40.3002 19.8415 40.2727 19.8837 38.9453 20.4595C38.6659 20.411 38.401 20.3007 38.1699 20.1369C37.9388 19.973 37.7472 19.7597 37.6094 19.5125Z" fill="#909BB0"/>
<path d="M31.1627 41.4526C31.4882 41.6319 31.7461 41.7543 31.9807 41.9125C32.0985 42.0132 32.2036 42.1279 32.2935 42.2541C32.4221 42.6651 32.4309 43.104 32.3189 43.5197C32.1233 43.7781 31.8549 43.9723 31.5479 44.0776C31.241 44.1828 30.9096 44.1942 30.5962 44.1103C30.249 43.9111 29.9581 43.6274 29.7507 43.2856C29.5393 42.7224 29.8818 42.3343 30.0276 42.0074C30.3764 41.6066 30.8097 41.7205 31.1627 41.4526Z" fill="#909BB0"/>
</svg>
