<svg width="119" height="39" viewBox="0 0 119 39" fill="none" xmlns="http://www.w3.org/2000/svg">
<path d="M64.5411 15.1417H66.7575V27.9625H64.08C62.6659 24.8601 61.2438 21.7416 59.8138 18.6069L59.6651 18.626V19.4016C59.6651 21.9487 59.6651 24.4958 59.6651 27.04C59.6651 27.3338 59.7826 27.676 59.4494 27.961C58.8945 28.1006 58.2891 27.961 57.7001 28.0256C57.5305 27.3984 57.4874 16.3359 57.645 15.1476H60.446L64.428 23.9685L64.5322 23.9582L64.5411 15.1417Z" fill="white"/>
<path d="M37.0997 22.7331C36.6091 22.6673 36.1122 22.6599 35.6197 22.7111V27.964C34.7644 28.0638 33.9924 28.011 33.1638 28.0036V15.2093C33.3587 15.0448 33.6011 15.1167 33.8228 15.1153C35.1615 15.1153 36.4899 15.102 37.8227 15.1153C38.6015 15.1171 39.3699 15.2929 40.0703 15.6294C42.0606 16.6062 42.477 19.5602 41.0996 21.1863C40.6567 21.7398 40.0782 22.1725 39.4188 22.4437C39.9364 23.3883 40.4332 24.2872 40.9256 25.1892C41.418 26.0911 41.9059 27.0003 42.425 27.961C41.5132 28.0771 40.6593 27.9904 39.7906 28.0198L37.0997 22.7331ZM35.5513 20.6531C36.1016 20.6531 36.5628 20.6531 37.0239 20.6531C37.3422 20.6531 37.6605 20.6531 37.9774 20.6325C38.3709 20.6177 38.7443 20.4569 39.0231 20.1821C39.3018 19.9074 39.4654 19.539 39.4812 19.1504C39.5407 18.0164 39.035 17.4582 38.2689 17.2276C37.8703 17.1071 36.0035 17.182 35.5513 17.3142V20.6531Z" fill="white"/>
<path d="M107.493 15.1402H115.955C116.084 15.7821 116.026 16.4197 115.997 17.1203H109.834V20.3226C110.469 20.4945 114.215 20.4945 114.883 20.3035C115.031 20.6223 114.944 20.9645 114.96 21.2921C114.976 21.6197 114.96 21.912 114.96 22.3203H109.81V25.9927C110.512 25.9927 111.195 26.0073 111.878 26.0103C112.561 26.0132 113.217 26 113.875 26.0103C114.534 26.0206 115.253 25.9442 115.967 26.0734V27.8949C115.351 28.0418 108.651 28.0918 107.441 27.9463C107.427 23.7099 107.338 19.4677 107.493 15.1402Z" fill="white"/>
<path d="M54.1734 26.0588C54.2969 26.7154 54.215 27.3074 54.2403 27.8846C53.5695 28.0506 46.8936 28.0859 45.7869 27.9361V15.1564H54.2359V17.1042H48.1862C47.9646 17.8269 47.969 19.7218 48.213 20.4387C49.8031 20.4093 51.429 20.5356 53.1336 20.3476C53.2987 20.9175 53.153 21.5609 53.1976 22.2337C52.6279 22.432 52.0507 22.3057 51.487 22.3292C50.9232 22.3527 50.3862 22.3292 49.8358 22.3292H48.0732V26.0015H50.1051C50.8012 26.0015 51.4974 25.9927 52.1876 26.0015C52.848 26.0162 53.51 25.9486 54.1734 26.0588Z" fill="white"/>
<path d="M103.624 26.0147V27.9757H95.2685C95.1123 27.397 95.0706 16.2992 95.2253 15.1858C96.0851 15.08 102.847 15.0859 103.646 15.199V17.1306H97.467V20.349C98.3491 20.4959 101.906 20.4768 102.578 20.3182V22.2425C102.047 22.4305 101.468 22.3042 100.905 22.3277C100.341 22.3512 99.8039 22.3277 99.2535 22.3277H97.4685V26.0147H103.624Z" fill="white"/>
<path d="M90.8773 16.5798C90.5883 17.0915 90.2543 17.5771 89.8792 18.0311C89.5192 18.0105 89.424 17.6859 89.2113 17.5184C88.3188 16.8192 87.3459 16.4784 86.2259 16.8045C84.9466 17.1776 84.6789 18.3278 85.6309 19.2371C86.0207 19.5785 86.4573 19.8638 86.928 20.0846C87.7937 20.5385 88.7011 20.9146 89.5147 21.464C90.3284 22.0133 90.9621 22.6934 91.2045 23.7305C91.5333 25.1421 90.8282 27.0165 89.3585 27.8097C87.4798 28.8247 83.8845 28.6 82.2646 26.6067C82.284 26.2615 82.5384 26.0044 82.6871 25.7047C82.8092 25.4092 82.9903 25.1409 83.2196 24.9159C83.471 24.9394 83.596 25.1524 83.7566 25.292C84.5502 25.9698 85.5463 26.3731 86.5933 26.4407C87.4352 26.5127 88.4869 26.1263 88.7427 25.3375C89.006 24.5179 88.8498 23.8128 88.1656 23.2722C87.6553 22.8951 87.1009 22.5799 86.5144 22.3336C85.8079 22.0075 85.0879 21.699 84.4647 21.226C83.5067 20.5003 82.8582 19.594 82.818 18.3498C82.7778 17.1057 83.3401 16.1832 84.3263 15.5177C86.2601 14.2119 89.2514 14.6364 90.8073 16.3815C90.8399 16.444 90.8634 16.5108 90.8773 16.5798Z" fill="white"/>
<path d="M75.641 17.1468V27.9639H73.2432V17.1864H69.7163C69.5542 16.4769 69.6434 15.8365 69.6285 15.1534H79.2675C79.3806 15.7851 79.3315 16.4241 79.3017 17.1438L75.641 17.1468Z" fill="white"/>
<path d="M25.9257 6.73063C25.7919 7.49154 25.2772 7.77651 24.5647 7.90578L23.6811 7.49154C23.2646 7.00826 23.1679 6.4912 23.5219 5.94329C23.8031 5.50261 24.2255 5.26465 24.7551 5.33662C25.5286 5.43504 25.8261 5.98442 25.9257 6.73063Z" fill="white"/>
<path d="M5.44119 10.9744C5.96479 11.1756 6.44079 11.2402 6.6654 11.7808C6.7686 11.9985 6.8035 12.2417 6.76559 12.4791C6.72768 12.7166 6.61871 12.9374 6.45269 13.1131C6.3038 13.3069 6.09842 13.451 5.86415 13.5261C5.62988 13.6012 5.37795 13.6037 5.1422 13.5332C4.6424 13.3981 4.21549 12.9001 4.18128 12.4404C4.15599 12.1084 4.3211 11.8425 4.5234 11.5987C4.61092 11.4864 4.71466 11.3874 4.83131 11.3049C5.02023 11.1815 5.22699 11.0875 5.44119 10.9744Z" fill="white"/>
<path d="M9.25073 7.34461L9.66872 6.52201C10.2637 6.08134 10.8587 6.04314 11.5132 6.46913C11.9595 7.04055 11.9729 7.64427 11.5712 8.23919C11.1339 8.65636 10.6103 8.60642 10.0912 8.58439C9.58096 8.33173 9.35634 7.89105 9.25073 7.34461Z" fill="white"/>
<path d="M22.3587 34.8562C21.9035 34.4155 21.3472 34.0482 21.6908 33.2873C21.9883 32.6337 22.3914 32.4457 23.4758 32.5132L24.1273 33.2124C24.2433 33.4886 24.1451 33.7721 24.1868 34.0277C23.9637 34.3453 23.6899 34.6251 23.3761 34.8562H22.3587Z" fill="white"/>
<path d="M4.12778 24.5781H5.06788C6.03178 25.364 6.11954 25.7033 5.61231 26.6552C4.68559 27.1605 4.34198 27.1237 3.54319 26.4201C3.41676 26.1851 3.54319 25.8619 3.32007 25.6416C3.43907 25.2009 3.71872 24.8851 4.12778 24.5781Z" fill="white"/>
<path d="M18.7425 5.83604L18.0448 6.50587H17.0036C16.1527 5.78316 16.0099 5.39977 16.3565 4.79604C16.654 4.26869 17.2832 3.99547 17.8187 4.15559C18.4896 4.35536 18.7931 4.88124 18.7425 5.83604Z" fill="white"/>
<path d="M9.64057 30.0748C9.78932 30.2099 9.91576 30.3231 10.0362 30.4435C10.1151 30.5243 10.185 30.6154 10.2564 30.7035V31.8037C9.40703 32.7615 8.80311 32.7277 7.86896 31.6847C7.82731 30.9664 7.82731 30.9664 8.11291 30.4009C8.5309 29.997 9.0545 30.0498 9.64057 30.0748Z" fill="white"/>
<path d="M29.9598 30.9782C29.3261 31.3866 28.743 31.3777 28.1837 30.9973C27.8267 30.6139 27.797 30.1718 27.8535 29.6753C28.032 29.3815 28.3355 29.1567 28.5809 28.8967C29.2756 28.7704 29.8498 28.8879 30.2439 29.4843C30.2915 30.3524 30.2915 30.3524 29.9598 30.9782Z" fill="white"/>
<path d="M4.40895 19.6396L3.94634 20.0802H2.74444C2.10184 19.5147 1.94268 19.1093 2.17324 18.5658C2.4514 17.9106 2.96013 17.6315 3.66074 17.705C4.42383 18.0561 4.70496 18.6304 4.40895 19.6396Z" fill="white"/>
<path d="M31.4903 10.4397V11.3372C31.349 11.631 31.0872 11.8146 30.8805 12.0026C29.9716 12.0437 29.9716 12.0437 29.3677 11.722C29.0389 11.3475 29.0107 10.9053 29.0791 10.4176C29.4584 9.90204 29.9225 9.51571 30.6707 9.64204C30.9846 9.86385 31.2612 10.133 31.4903 10.4397Z" fill="white"/>
<path d="M16.8652 33.6267V34.5727C16.6977 34.8233 16.4813 35.0386 16.2286 35.2058H15.1011C14.4927 34.8415 14.3573 34.2774 14.4689 33.6164C15.2082 32.5544 16.117 32.5852 16.8652 33.6267Z" fill="white"/>
<path d="M16.7449 8.94432C16.7951 8.73389 16.8904 8.53653 17.0244 8.36551C17.1583 8.19448 17.3278 8.05376 17.5213 7.95279C17.8962 7.83822 18.1818 8.03946 18.4629 8.20986C18.6578 8.48748 18.8155 8.7563 18.7485 9.12794C18.6165 9.37149 18.4253 9.57891 18.1922 9.73167C17.9393 9.83155 17.679 9.77867 17.4261 9.77573C17.0305 9.62443 16.8758 9.29099 16.7449 8.94432Z" fill="white"/>
<path d="M8.5725 14.8846C8.49992 14.5456 8.49992 14.1954 8.5725 13.8564C9.465 13.1616 9.92315 13.2688 10.42 14.2971C10.3635 14.8685 10.0109 15.1784 9.46203 15.293C9.11395 15.2842 8.85513 15.1182 8.5725 14.8846Z" fill="white"/>
<path d="M6.6416 19.2855V18.6554L7.15628 18.1163C8.24661 17.9988 8.52924 18.2632 8.47866 19.3193C8.32302 19.5654 8.10581 19.7678 7.84796 19.9069C7.33775 19.9774 6.97331 19.7336 6.6416 19.2855Z" fill="white"/>
<path d="M8.65285 25.0966C8.36314 25.0305 8.09971 24.8813 7.89571 24.6677C7.80516 24.3465 7.79293 24.0087 7.86001 23.682C8.6945 22.9329 9.22703 23.0563 9.7179 24.1154C9.62716 24.678 9.29247 24.9952 8.65285 25.0966Z" fill="white"/>
<path d="M26.2394 28.3121C25.9838 28.1657 25.7667 27.9619 25.6057 27.7172V27.1179C25.7456 26.8679 25.9511 26.6599 26.2007 26.5156C26.4111 26.4422 26.6396 26.4361 26.8537 26.498C27.0813 26.6254 27.2742 26.8053 27.416 27.0224C27.5186 27.9596 27.2494 28.2489 26.2394 28.3121Z" fill="white"/>
<path d="M11.1562 27.7877C11.3613 27.5518 11.6386 27.3884 11.9461 27.322C12.1524 27.3314 12.3533 27.3898 12.532 27.492C12.7106 27.5943 12.8617 27.7375 12.9725 27.9096C13.0692 28.1123 13.0246 28.3385 13.0097 28.5545C12.8193 28.9143 12.5024 29.0921 12.1038 29.2037C11.9048 29.1742 11.7155 29.0992 11.5509 28.9847C11.3864 28.8702 11.2513 28.7194 11.1562 28.5442V27.7877Z" fill="white"/>
<path d="M16.8788 29.2316C17.1354 29.3567 17.3525 29.5487 17.5065 29.7869C17.5898 30.5449 17.4916 30.8049 17.035 31.0017C16.4251 31.2676 16.0696 30.8886 15.7245 30.5346C15.6665 29.571 15.8747 29.3433 16.8788 29.2316Z" fill="white"/>
<path d="M22.7096 9.31448C23.0327 9.26014 23.3625 9.25617 23.6869 9.30272C23.8802 9.41023 24.0398 9.56831 24.148 9.75956V10.494C24.0482 10.6821 23.8986 10.84 23.7152 10.9509C23.2525 11.014 22.7408 11.1154 22.4121 10.5454C22.1711 10.1356 22.1994 10.0063 22.7096 9.31448Z" fill="white"/>
<path d="M13.0201 11.653C12.7032 11.5193 12.4013 11.4121 12.2079 11.039C12.132 10.8333 12.1737 10.5542 12.2198 10.2531C12.3574 10.0723 12.546 9.93565 12.7619 9.86015C12.9778 9.78464 13.2114 9.77367 13.4336 9.8286C13.6758 9.96876 13.88 10.1648 14.0286 10.4C14.155 10.7834 13.9602 11.0684 13.8069 11.346C13.5511 11.5472 13.2536 11.5487 13.0201 11.653Z" fill="white"/>
<path d="M26.467 13.5891V13.025C26.6107 12.7755 26.8152 12.5654 27.062 12.4139C27.2787 12.3552 27.5073 12.3552 27.724 12.4139C27.946 12.5504 28.1349 12.7335 28.2773 12.9501C28.3606 13.8182 28.3413 13.8476 27.4071 14.2486C27.2106 14.2148 27.0241 14.138 26.8615 14.0239C26.6988 13.9098 26.5641 13.7612 26.467 13.5891Z" fill="white"/>
<path d="M21.9303 28.8688C22.1594 28.9937 22.3408 29.0789 22.5059 29.189C22.5889 29.2592 22.6628 29.3391 22.7261 29.427C22.8166 29.7132 22.8228 30.0188 22.7439 30.3084C22.6063 30.4883 22.4174 30.6236 22.2014 30.6969C21.9854 30.7702 21.7522 30.7781 21.5316 30.7197C21.2873 30.581 21.0826 30.3834 20.9366 30.1453C20.7879 29.7531 21.0289 29.4828 21.1315 29.2551C21.3769 28.976 21.6819 29.0554 21.9303 28.8688Z" fill="white"/>
</svg>
